<svg xmlns="http://www.w3.org/2000/svg" viewBox="0 0 850 119" class="encoding-table">
  <defs>
    <style>
      .encoding-table { font-family: "DejaVu Sans Mono", "Courier New", monospace; }
      .bit-num { font-size: 9px; fill: #666; text-anchor: middle; }
      .field-name { font-size: 10px; fill: #333; text-anchor: middle; dominant-baseline: middle; font-weight: bold; }
      .field-value { font-size: 9px; fill: #555; text-anchor: middle; dominant-baseline: middle; }
      .opcode-text { font-size: 10px; fill: #fff; text-anchor: middle; dominant-baseline: middle; font-weight: bold; }
      .title { font-size: 14px; fill: #333; text-anchor: start; font-weight: bold; }
      .legend-text { font-size: 9px; fill: #333; text-anchor: start; }
      .encoding-diagram rect { stroke: #333; stroke-width: 0.5; }
    </style>
  </defs>
  <rect x="0" y="0" width="850" height="119" fill="white"/>
  <text x="10" y="20" class="title">LB (32-bit)</text>
  <text x="61.71875" y="50" class="bit-num">31</text>
  <text x="85.15625" y="50" class="bit-num">30</text>
  <text x="108.59375" y="50" class="bit-num">29</text>
  <text x="132.03125" y="50" class="bit-num">28</text>
  <text x="155.46875" y="50" class="bit-num">27</text>
  <text x="178.90625" y="50" class="bit-num">26</text>
  <text x="202.34375" y="50" class="bit-num">25</text>
  <text x="225.78125" y="50" class="bit-num">24</text>
  <text x="249.21875" y="50" class="bit-num">23</text>
  <text x="272.65625" y="50" class="bit-num">22</text>
  <text x="296.09375" y="50" class="bit-num">21</text>
  <text x="319.53125" y="50" class="bit-num">20</text>
  <text x="342.96875" y="50" class="bit-num">19</text>
  <text x="366.40625" y="50" class="bit-num">18</text>
  <text x="389.84375" y="50" class="bit-num">17</text>
  <text x="413.28125" y="50" class="bit-num">16</text>
  <text x="436.71875" y="50" class="bit-num">15</text>
  <text x="460.15625" y="50" class="bit-num">14</text>
  <text x="483.59375" y="50" class="bit-num">13</text>
  <text x="507.03125" y="50" class="bit-num">12</text>
  <text x="530.46875" y="50" class="bit-num">11</text>
  <text x="553.90625" y="50" class="bit-num">10</text>
  <text x="577.34375" y="50" class="bit-num">9</text>
  <text x="600.78125" y="50" class="bit-num">8</text>
  <text x="624.21875" y="50" class="bit-num">7</text>
  <text x="647.65625" y="50" class="bit-num">6</text>
  <text x="671.09375" y="50" class="bit-num">5</text>
  <text x="694.53125" y="50" class="bit-num">4</text>
  <text x="717.96875" y="50" class="bit-num">3</text>
  <text x="741.40625" y="50" class="bit-num">2</text>
  <text x="764.84375" y="50" class="bit-num">1</text>
  <text x="788.28125" y="50" class="bit-num">0</text>
  <rect x="682.8125" y="57" width="117.1875" height="20" fill="#ffe66d" rx="2"/>
  <text x="741.40625" y="65.0" class="field-name">shamt</text>
  <rect x="635.9375" y="57" width="46.875" height="20" fill="#4ecdc4" rx="2"/>
  <text x="659.375" y="65.0" class="field-name">SrcRType</text>
  <rect x="518.75" y="57" width="117.1875" height="20" fill="#4ecdc4" rx="2"/>
  <text x="577.34375" y="65.0" class="field-name">SrcR</text>
  <rect x="401.5625" y="57" width="117.1875" height="20" fill="#4ecdc4" rx="2"/>
  <text x="460.15625" y="65.0" class="field-name">SrcL</text>
  <rect x="331.25" y="57" width="70.3125" height="20" fill="#e0e0e0" rx="2"/>
  <text x="366.40625" y="65.0" class="field-name">3'b000</text>
  <text x="366.40625" y="75.0" class="field-value">000</text>
  <rect x="214.0625" y="57" width="117.1875" height="20" fill="#4ecdc4" rx="2"/>
  <text x="272.65625" y="65.0" class="field-name">RegDst</text>
  <rect x="143.75" y="57" width="70.3125" height="20" fill="#e0e0e0" rx="2"/>
  <text x="178.90625" y="65.0" class="field-name">3'b000</text>
  <text x="178.90625" y="75.0" class="field-value">000</text>
  <rect x="73.4375" y="57" width="70.3125" height="20" fill="#e0e0e0" rx="2"/>
  <text x="108.59375" y="65.0" class="field-name">3'b100</text>
  <text x="108.59375" y="75.0" class="field-value">100</text>
  <rect x="50.0" y="57" width="23.4375" height="20" fill="#e0e0e0" rx="2"/>
  <text x="61.71875" y="68.0" class="field-name" font-size="8">1</text>
  <line x1="50" y1="35" x2="800" y2="35" stroke="#333" stroke-width="1"/>
  <line x1="50" y1="57" x2="800" y2="57" stroke="#333" stroke-width="1"/>
  <line x1="50" y1="79" x2="800" y2="79" stroke="#333" stroke-width="1"/>
  <line x1="50" y1="35" x2="50" y2="79" stroke="#333" stroke-width="1"/>
  <line x1="800" y1="35" x2="800" y2="79" stroke="#333" stroke-width="1"/>
  <rect x="50" y="101" width="12" height="12" fill="#e0e0e0" rx="1"/>
  <text x="65" y="111" class="legend-text">Constant</text>
  <rect x="150" y="101" width="12" height="12" fill="#4ecdc4" rx="1"/>
  <text x="165" y="111" class="legend-text">Register</text>
  <rect x="250" y="101" width="12" height="12" fill="#ffe66d" rx="1"/>
  <text x="265" y="111" class="legend-text">Immediate</text>
  <rect x="350" y="101" width="12" height="12" fill="#c792ea" rx="1"/>
  <text x="365" y="111" class="legend-text">Function</text>
</svg>