<svg xmlns="http://www.w3.org/2000/svg" viewBox="0 0 850 119" class="encoding-table">
  <defs>
    <style>
      .encoding-table { font-family: "DejaVu Sans Mono", "Courier New", monospace; }
      .bit-num { font-size: 9px; fill: #666; text-anchor: middle; }
      .field-name { font-size: 10px; fill: #333; text-anchor: middle; dominant-baseline: middle; font-weight: bold; }
      .field-value { font-size: 9px; fill: #555; text-anchor: middle; dominant-baseline: middle; }
      .opcode-text { font-size: 10px; fill: #fff; text-anchor: middle; dominant-baseline: middle; font-weight: bold; }
      .title { font-size: 14px; fill: #333; text-anchor: start; font-weight: bold; }
      .legend-text { font-size: 9px; fill: #333; text-anchor: start; }
      .encoding-diagram rect { stroke: #333; stroke-width: 0.5; }
    </style>
  </defs>
  <rect x="0" y="0" width="850" height="119" fill="white"/>
  <text x="10" y="20" class="title">C.MOVR (16-bit)</text>
  <text x="73.4375" y="50" class="bit-num">15</text>
  <text x="120.3125" y="50" class="bit-num">14</text>
  <text x="167.1875" y="50" class="bit-num">13</text>
  <text x="214.0625" y="50" class="bit-num">12</text>
  <text x="260.9375" y="50" class="bit-num">11</text>
  <text x="307.8125" y="50" class="bit-num">10</text>
  <text x="354.6875" y="50" class="bit-num">9</text>
  <text x="401.5625" y="50" class="bit-num">8</text>
  <text x="448.4375" y="50" class="bit-num">7</text>
  <text x="495.3125" y="50" class="bit-num">6</text>
  <text x="542.1875" y="50" class="bit-num">5</text>
  <text x="589.0625" y="50" class="bit-num">4</text>
  <text x="635.9375" y="50" class="bit-num">3</text>
  <text x="682.8125" y="50" class="bit-num">2</text>
  <text x="729.6875" y="50" class="bit-num">1</text>
  <text x="776.5625" y="50" class="bit-num">0</text>
  <rect x="565.625" y="57" width="234.375" height="20" fill="#4ecdc4" rx="2"/>
  <text x="682.8125" y="65.0" class="field-name">RegDst</text>
  <rect x="331.25" y="57" width="234.375" height="20" fill="#4ecdc4" rx="2"/>
  <text x="448.4375" y="65.0" class="field-name">SrcL</text>
  <rect x="237.5" y="57" width="93.75" height="20" fill="#e0e0e0" rx="2"/>
  <text x="284.375" y="65.0" class="field-name">2'b00</text>
  <text x="284.375" y="75.0" class="field-value">00</text>
  <rect x="96.875" y="57" width="140.625" height="20" fill="#e0e0e0" rx="2"/>
  <text x="167.1875" y="65.0" class="field-name">3'b011</text>
  <text x="167.1875" y="75.0" class="field-value">011</text>
  <rect x="50.0" y="57" width="46.875" height="20" fill="#e0e0e0" rx="2"/>
  <text x="73.4375" y="65.0" class="field-name">0</text>
  <text x="73.4375" y="75.0" class="field-value">0</text>
  <line x1="50" y1="35" x2="800" y2="35" stroke="#333" stroke-width="1"/>
  <line x1="50" y1="57" x2="800" y2="57" stroke="#333" stroke-width="1"/>
  <line x1="50" y1="79" x2="800" y2="79" stroke="#333" stroke-width="1"/>
  <line x1="50" y1="35" x2="50" y2="79" stroke="#333" stroke-width="1"/>
  <line x1="800" y1="35" x2="800" y2="79" stroke="#333" stroke-width="1"/>
  <rect x="50" y="101" width="12" height="12" fill="#e0e0e0" rx="1"/>
  <text x="65" y="111" class="legend-text">Constant</text>
  <rect x="150" y="101" width="12" height="12" fill="#4ecdc4" rx="1"/>
  <text x="165" y="111" class="legend-text">Register</text>
  <rect x="250" y="101" width="12" height="12" fill="#ffe66d" rx="1"/>
  <text x="265" y="111" class="legend-text">Immediate</text>
  <rect x="350" y="101" width="12" height="12" fill="#c792ea" rx="1"/>
  <text x="365" y="111" class="legend-text">Function</text>
</svg>