<svg xmlns="http://www.w3.org/2000/svg" viewBox="0 0 1050 119" class="encoding-table">
  <defs>
    <style>
      .encoding-table { font-family: "DejaVu Sans Mono", "Courier New", monospace; }
      .bit-num { font-size: 9px; fill: #666; text-anchor: middle; }
      .field-name { font-size: 10px; fill: #333; text-anchor: middle; dominant-baseline: middle; font-weight: bold; }
      .field-value { font-size: 9px; fill: #555; text-anchor: middle; dominant-baseline: middle; }
      .opcode-text { font-size: 10px; fill: #fff; text-anchor: middle; dominant-baseline: middle; font-weight: bold; }
      .title { font-size: 14px; fill: #333; text-anchor: start; font-weight: bold; }
      .legend-text { font-size: 9px; fill: #333; text-anchor: start; }
      .encoding-diagram rect { stroke: #333; stroke-width: 0.5; }
    </style>
  </defs>
  <rect x="0" y="0" width="1050" height="119" fill="white"/>
  <text x="10" y="20" class="title">V.ICVTF (64-bit)</text>
  <text x="57.421875" y="50" class="bit-num">63</text>
  <text x="116.796875" y="50" class="bit-num">59</text>
  <text x="176.171875" y="50" class="bit-num">55</text>
  <text x="235.546875" y="50" class="bit-num">51</text>
  <text x="294.921875" y="50" class="bit-num">47</text>
  <text x="354.296875" y="50" class="bit-num">43</text>
  <text x="413.671875" y="50" class="bit-num">39</text>
  <text x="473.046875" y="50" class="bit-num">35</text>
  <text x="532.421875" y="50" class="bit-num">31</text>
  <text x="591.796875" y="50" class="bit-num">27</text>
  <text x="651.171875" y="50" class="bit-num">23</text>
  <text x="710.546875" y="50" class="bit-num">19</text>
  <text x="769.921875" y="50" class="bit-num">15</text>
  <text x="829.296875" y="50" class="bit-num">11</text>
  <text x="888.671875" y="50" class="bit-num">7</text>
  <text x="948.046875" y="50" class="bit-num">3</text>
  <rect x="450.78125" y="57" width="74.21875" height="20" fill="#e0e0e0" rx="2"/>
  <text x="487.890625" y="65.0" class="field-name">5'b0_0000</text>
  <text x="487.890625" y="75.0" class="field-value">0x00</text>
  <rect x="450.78125" y="57" width="74.21875" height="20" fill="#c792ea" rx="2"/>
  <text x="487.890625" y="65.0" class="field-name">DstType</text>
  <rect x="421.09375" y="57" width="29.6875" height="20" fill="#e0e0e0" rx="2"/>
  <text x="435.9375" y="68.0" class="field-name" font-size="8">2'b0</text>
  <rect x="421.09375" y="57" width="29.6875" height="20" fill="#e0e0e0" rx="2"/>
  <text x="435.9375" y="68.0" class="field-name" font-size="8">2'b0</text>
  <rect x="346.875" y="57" width="74.21875" height="20" fill="#e0e0e0" rx="2"/>
  <text x="383.984375" y="65.0" class="field-name">5'b0_0000</text>
  <text x="383.984375" y="75.0" class="field-value">0x00</text>
  <rect x="346.875" y="57" width="74.21875" height="20" fill="#c792ea" rx="2"/>
  <text x="383.984375" y="65.0" class="field-name">SrcType</text>
  <rect x="272.65625" y="57" width="74.21875" height="20" fill="#4ecdc4" rx="2"/>
  <text x="309.765625" y="65.0" class="field-name">SrcL[9:5]</text>
  <rect x="272.65625" y="57" width="74.21875" height="20" fill="#4ecdc4" rx="2"/>
  <text x="309.765625" y="65.0" class="field-name">SrcL[4:0]</text>
  <rect x="257.8125" y="57" width="14.84375" height="20" fill="#e0e0e0" rx="2"/>
  <rect x="257.8125" y="57" width="14.84375" height="20" fill="#e0e0e0" rx="2"/>
  <rect x="242.96875" y="57" width="14.84375" height="20" fill="#e0e0e0" rx="2"/>
  <rect x="242.96875" y="57" width="14.84375" height="20" fill="#e0e0e0" rx="2"/>
  <rect x="228.125" y="57" width="14.84375" height="20" fill="#e0e0e0" rx="2"/>
  <rect x="228.125" y="57" width="14.84375" height="20" fill="#e0e0e0" rx="2"/>
  <rect x="153.90625" y="57" width="74.21875" height="20" fill="#4ecdc4" rx="2"/>
  <text x="191.015625" y="65.0" class="field-name">RegDst[9:5]</text>
  <rect x="153.90625" y="57" width="74.21875" height="20" fill="#4ecdc4" rx="2"/>
  <text x="191.015625" y="65.0" class="field-name">RegDst[4:0]</text>
  <rect x="109.375" y="57" width="44.53125" height="20" fill="#e0e0e0" rx="2"/>
  <text x="131.640625" y="65.0" class="field-name">3'b111</text>
  <text x="131.640625" y="75.0" class="field-value">111</text>
  <rect x="109.375" y="57" width="44.53125" height="20" fill="#e0e0e0" rx="2"/>
  <text x="131.640625" y="65.0" class="field-name">3'b110</text>
  <text x="131.640625" y="75.0" class="field-value">110</text>
  <rect x="64.84375" y="57" width="44.53125" height="20" fill="#e0e0e0" rx="2"/>
  <text x="87.109375" y="65.0" class="field-name">3'b111</text>
  <text x="87.109375" y="75.0" class="field-value">111</text>
  <rect x="64.84375" y="57" width="44.53125" height="20" fill="#e0e0e0" rx="2"/>
  <text x="87.109375" y="65.0" class="field-name">3'b101</text>
  <text x="87.109375" y="75.0" class="field-value">101</text>
  <rect x="50.0" y="57" width="14.84375" height="20" fill="#e0e0e0" rx="2"/>
  <rect x="50.0" y="57" width="14.84375" height="20" fill="#e0e0e0" rx="2"/>
  <line x1="50" y1="35" x2="1000" y2="35" stroke="#333" stroke-width="1"/>
  <line x1="50" y1="57" x2="1000" y2="57" stroke="#333" stroke-width="1"/>
  <line x1="50" y1="79" x2="1000" y2="79" stroke="#333" stroke-width="1"/>
  <line x1="50" y1="35" x2="50" y2="79" stroke="#333" stroke-width="1"/>
  <line x1="1000" y1="35" x2="1000" y2="79" stroke="#333" stroke-width="1"/>
  <rect x="50" y="101" width="12" height="12" fill="#e0e0e0" rx="1"/>
  <text x="65" y="111" class="legend-text">Constant</text>
  <rect x="150" y="101" width="12" height="12" fill="#4ecdc4" rx="1"/>
  <text x="165" y="111" class="legend-text">Register</text>
  <rect x="250" y="101" width="12" height="12" fill="#ffe66d" rx="1"/>
  <text x="265" y="111" class="legend-text">Immediate</text>
  <rect x="350" y="101" width="12" height="12" fill="#c792ea" rx="1"/>
  <text x="365" y="111" class="legend-text">Function</text>
</svg>